<svg width="18" height="18" viewBox="0 0 18 18" fill="none" xmlns="http://www.w3.org/2000/svg">
<g clip-path="url(#clip0_18667_7581)">
<path fill-rule="evenodd" clip-rule="evenodd" d="M1.45463 12.7772C0.883687 11.6409 0.5625 10.3573 0.5625 9C0.5625 7.64269 0.883687 6.35906 1.45463 5.22281C2.84119 2.45981 5.70094 0.5625 9 0.5625C12.2991 0.5625 15.1588 2.45981 16.5454 5.22281C17.1163 6.35906 17.4375 7.64269 17.4375 9C17.4375 10.3573 17.1163 11.6409 16.5454 12.7772C15.1588 15.5402 12.2991 17.4375 9 17.4375C5.70094 17.4375 2.84119 15.5402 1.45463 12.7772ZM2.24213 6.20269C1.88494 7.06444 1.6875 8.00944 1.6875 9C1.6875 9.99056 1.88494 10.9356 2.24213 11.7973C3.16069 11.4412 4.2435 11.1555 5.43881 10.9631C5.37694 10.3342 5.34375 9.67669 5.34375 9C5.34375 8.32331 5.37694 7.66575 5.43881 7.03688C4.2435 6.8445 3.16069 6.55875 2.24213 6.20269ZM15.2443 5.19525C14.3028 3.65332 12.8255 2.51304 11.0953 1.99294C11.1735 2.11444 11.2494 2.24325 11.3226 2.37937C11.8024 3.27544 12.186 4.49944 12.4166 5.922C13.4674 5.75156 14.4242 5.5035 15.2443 5.19525ZM6.90469 1.99294C5.17453 2.51304 3.69716 3.65332 2.75569 5.19525C3.57581 5.50406 4.53262 5.75156 5.58337 5.922C5.814 4.49944 6.19763 3.27544 6.67744 2.37937C6.75056 2.24325 6.8265 2.11444 6.90469 1.99294ZM15.7579 11.7973C16.1151 10.9356 16.3125 9.99056 16.3125 9C16.3125 8.00944 16.1151 7.06444 15.7579 6.20269C14.8393 6.55875 13.7565 6.8445 12.5612 7.03688C12.6231 7.66575 12.6562 8.32331 12.6562 9C12.6562 9.67669 12.6231 10.3342 12.5612 10.9631C13.7565 11.1555 14.8393 11.4412 15.7579 11.7973ZM2.75569 12.8048C3.69716 14.3467 5.17453 15.487 6.90469 16.0071C6.82389 15.8813 6.74808 15.7524 6.67744 15.6206C6.19763 14.7246 5.814 13.5006 5.58337 12.078C4.53262 12.2484 3.57581 12.4965 2.75569 12.8048ZM11.0953 16.0071C12.8255 15.487 14.3028 14.3467 15.2443 12.8048C14.4242 12.4965 13.4674 12.2484 12.4166 12.078C12.186 13.5006 11.8024 14.7246 11.3226 15.6206C11.2494 15.7568 11.1735 15.8856 11.0953 16.0071ZM9 1.6875C8.78344 1.6875 8.58094 1.79044 8.38631 1.95581C8.12531 2.17744 7.88681 2.50425 7.66913 2.91094C7.23938 3.71306 6.90188 4.80375 6.696 6.06994C7.43288 6.147 8.20463 6.1875 9 6.1875C9.79537 6.1875 10.5671 6.14644 11.304 6.06994C11.0981 4.80375 10.7606 3.71306 10.3309 2.91094C10.1132 2.50425 9.87469 2.17744 9.61369 1.95581C9.41906 1.79044 9.21656 1.6875 9 1.6875ZM9 16.3125C9.21656 16.3125 9.41906 16.2096 9.61369 16.0442C9.87469 15.8226 10.1132 15.4958 10.3309 15.0891C10.7606 14.2869 11.0981 13.1962 11.304 11.9301C10.5671 11.8536 9.79537 11.8125 9 11.8125C8.20463 11.8125 7.43288 11.8536 6.696 11.9301C6.90188 13.1962 7.23938 14.2869 7.66913 15.0891C7.88681 15.4958 8.12531 15.8226 8.38631 16.0442C8.58094 16.2096 8.78344 16.3125 9 16.3125ZM11.4469 10.8152C11.502 10.2336 11.5312 9.6255 11.5312 9C11.5312 8.3745 11.502 7.76644 11.4469 7.18481C10.6644 7.26806 9.84431 7.3125 9 7.3125C8.15569 7.3125 7.33556 7.26806 6.55312 7.18481C6.498 7.76644 6.46875 8.3745 6.46875 9C6.46875 9.6255 6.498 10.2336 6.55312 10.8152C7.33556 10.7319 8.15569 10.6875 9 10.6875C9.84431 10.6875 10.6644 10.7319 11.4469 10.8152Z" fill="black"/>
</g>
<defs>
<clipPath id="clip0_18667_7581">
<rect width="18" height="18" fill="white"/>
</clipPath>
</defs>
</svg>
