<svg width="24" height="24" viewBox="0 0 24 24" fill="none" xmlns="http://www.w3.org/2000/svg">
<g id="Frame">
<g id="Group">
<path id="Vector" d="M13.0609 11.9996L17.7807 7.27982C17.9173 7.13837 17.9929 6.94892 17.9912 6.75227C17.9895 6.55562 17.9106 6.36751 17.7715 6.22846C17.6325 6.0894 17.4444 6.01053 17.2477 6.00882C17.0511 6.00711 16.8616 6.0827 16.7202 6.21932L12.0004 10.9391L7.28068 6.21932C7.13923 6.0827 6.94977 6.00711 6.75313 6.00882C6.55648 6.01053 6.36837 6.0894 6.22931 6.22846C6.09026 6.36751 6.01138 6.55562 6.00967 6.75227C6.00796 6.94892 6.08356 7.13837 6.22018 7.27982L10.9399 11.9996L6.22018 16.7193C6.14854 16.7885 6.09141 16.8713 6.0521 16.9628C6.01279 17.0543 5.9921 17.1527 5.99124 17.2523C5.99037 17.3519 6.00935 17.4506 6.04706 17.5428C6.08477 17.635 6.14046 17.7187 6.21088 17.7891C6.2813 17.8595 6.36504 17.9152 6.45721 17.9529C6.54938 17.9907 6.64814 18.0096 6.74773 18.0088C6.84731 18.0079 6.94573 17.9872 7.03723 17.9479C7.12873 17.9086 7.21149 17.8515 7.28068 17.7798L12.0004 13.0601L16.7202 17.7798C16.8616 17.9164 17.0511 17.992 17.2477 17.9903C17.4444 17.9886 17.6325 17.9097 17.7715 17.7707C17.9106 17.6316 17.9895 17.4435 17.9912 17.2469C17.9929 17.0502 17.9173 16.8608 17.7807 16.7193L13.0609 11.9996Z" fill="black"/>
</g>
</g>
</svg>
