<svg width="16" height="16" viewBox="0 0 16 16" fill="none" xmlns="http://www.w3.org/2000/svg">
<path d="M1.80879 4.62872C1.73118 4.70613 1.66961 4.79809 1.6276 4.89933C1.58559 5.00057 1.56396 5.10911 1.56396 5.21872C1.56396 5.32833 1.58559 5.43687 1.6276 5.53811C1.66961 5.63935 1.73118 5.73131 1.80879 5.80872L7.41545 11.4154C7.47713 11.4772 7.55039 11.5262 7.63104 11.5597C7.71169 11.5931 7.79814 11.6104 7.88545 11.6104C7.97277 11.6104 8.05922 11.5931 8.13987 11.5597C8.22052 11.5262 8.29378 11.4772 8.35545 11.4154L13.9621 5.80872C14.2888 5.48206 14.2888 4.95539 13.9621 4.62872C13.6355 4.30206 13.1088 4.30206 12.7821 4.62872L7.88879 9.52206L2.98879 4.62206C2.66212 4.30206 2.13545 4.30206 1.80879 4.62872Z" fill="#3B4042"/>
</svg>
