<svg width="24" height="24" viewBox="0 0 24 24" fill="none" xmlns="http://www.w3.org/2000/svg">
<path d="M12 1.75C15.4558 1.75 18.25 4.54421 18.25 8C18.25 9.16075 17.8587 10.5176 17.2217 11.9395C16.5891 13.3514 15.7387 14.773 14.8779 16.0488C14.0186 17.3225 13.1583 18.4377 12.5117 19.2344C12.3206 19.4698 12.1474 19.6765 12 19.8516C11.8526 19.6765 11.6794 19.4698 11.4883 19.2344C10.8417 18.4377 9.98141 17.3225 9.12207 16.0488C8.26127 14.773 7.41089 13.3514 6.77832 11.9395C6.14132 10.5176 5.75 9.16075 5.75 8C5.75 4.54421 8.54421 1.75 12 1.75ZM12 4.75C11.138 4.75 10.3116 5.09266 9.70215 5.70215C9.09266 6.31164 8.75 7.13805 8.75 8C8.75 8.86195 9.09265 9.68836 9.70215 10.2979C10.3116 10.9073 11.138 11.25 12 11.25C12.862 11.25 13.6884 10.9073 14.2979 10.2979C14.9073 9.68836 15.25 8.86195 15.25 8C15.25 7.13805 14.9073 6.31164 14.2979 5.70215C13.6884 5.09265 12.862 4.75 12 4.75Z" stroke="#1973E8" stroke-width="1.5"/>
</svg>
