<svg width="16" height="16" viewBox="0 0 16 16" fill="none" xmlns="http://www.w3.org/2000/svg">
<path fill-rule="evenodd" clip-rule="evenodd" d="M14.4656 10.5543C14.4656 11.9055 13.3665 13.0028 12.0171 13.0028H3.98407C2.63466 13.0028 1.53557 11.9054 1.53557 10.5543V5.44302C1.53527 5.00756 1.65193 4.58002 1.87335 4.20505L5.79298 8.12468C6.37938 8.7128 7.16466 9.03687 8.00141 9.03687C8.83645 9.03687 9.62173 8.7128 10.2081 8.12468L14.1278 4.20505C14.3492 4.58001 14.4659 5.00756 14.4655 5.44302V10.5543H14.4656ZM12.0171 2.99455H3.98407C3.42682 2.99455 2.91241 3.18315 2.50091 3.49693L6.45998 7.45771C6.86979 7.86577 7.41673 8.09212 8.00141 8.09212C8.58438 8.09212 9.13135 7.86577 9.54113 7.45771L13.5002 3.49693C13.0887 3.18315 12.5744 2.99455 12.0171 2.99455ZM12.0171 2.0498H3.98407C2.11341 2.0498 0.59082 3.5724 0.59082 5.44305V10.5544C0.59082 12.4267 2.11341 13.9476 3.98407 13.9476H12.0171C13.8877 13.9476 15.4103 12.4267 15.4103 10.5544V5.44302C15.4103 3.57237 13.8877 2.0498 12.0171 2.0498Z" fill="black"/>
</svg>
