<svg width="16" height="16" viewBox="0 0 16 16" fill="none" xmlns="http://www.w3.org/2000/svg">
<path d="M6.66667 1.99967V7.99967H11.3333L12.6667 11.9997H14M6.66667 1.99967C6.66667 1.82286 6.73691 1.65329 6.86193 1.52827C6.98695 1.40325 7.15652 1.33301 7.33333 1.33301C7.51015 1.33301 7.67972 1.40325 7.80474 1.52827C7.92976 1.65329 8 1.82286 8 1.99967C8 2.17649 7.92976 2.34605 7.80474 2.47108C7.67972 2.5961 7.51015 2.66634 7.33333 2.66634C7.15652 2.66634 6.98695 2.5961 6.86193 2.47108C6.73691 2.34605 6.66667 2.17649 6.66667 1.99967ZM10 5.99967H6C5.20888 5.99967 4.43552 6.23427 3.77772 6.6738C3.11992 7.11332 2.60723 7.73804 2.30448 8.46894C2.00173 9.19985 1.92252 10.0041 2.07686 10.78C2.2312 11.556 2.61216 12.2687 3.17157 12.8281C3.73098 13.3875 4.44372 13.7685 5.21964 13.9228C5.99556 14.0772 6.79983 13.9979 7.53074 13.6952C8.26164 13.3924 8.88635 12.8798 9.32588 12.222C9.76541 11.5642 10 10.7908 10 9.99967" stroke="#707579" stroke-width="2" stroke-linecap="round" stroke-linejoin="round"/>
</svg>
