<svg width="24" height="25" viewBox="0 0 24 25" fill="none" xmlns="http://www.w3.org/2000/svg">
<path d="M12.0001 11.396C11.1553 11.396 10.4641 12.0872 10.4641 12.932C10.4641 13.7768 11.1553 14.468 12.0001 14.468C12.8449 14.468 13.5361 13.7768 13.5361 12.932C13.5361 12.0872 12.8449 11.396 12.0001 11.396ZM12.0001 17.54C11.1553 17.54 10.4641 18.2312 10.4641 19.076C10.4641 19.9208 11.1553 20.612 12.0001 20.612C12.8449 20.612 13.5361 19.9208 13.5361 19.076C13.5361 18.2312 12.8449 17.54 12.0001 17.54ZM12.0001 8.32395C12.8449 8.32395 13.5361 7.63275 13.5361 6.78795C13.5361 5.94315 12.8449 5.25195 12.0001 5.25195C11.1553 5.25195 10.4641 5.94315 10.4641 6.78795C10.4641 7.63275 11.1553 8.32395 12.0001 8.32395Z" fill="black"/>
</svg>
